#N canvas 0 22 1137 857 10;
#X floatatom 709 326 7 0 0 0 - - -;
#X obj 709 352 delread~ delay1;
#X obj 709 445 *~;
#N canvas 0 22 822 586 compressor2 0;
#X obj 263 236 expr (($f1 - $f3) / $f2) - $f1 + $f3;
#X obj 228 141 env~ 1024;
#X obj 263 379 dbtorms;
#X obj 263 308 expr 100 + $f1;
#X obj 28 439 *~;
#X obj 48 412 line~;
#X floatatom 27 194 5 0 0 0 - - -;
#X obj 228 188 moses;
#X msg 228 250 1;
#X text 74 189 forward control;
#X text 310 275 value by which the signal must be reduced;
#X text 389 345 conversion;
#X text 367 386 correction factor of the input signal's rms value;
#X text 453 504 www.pd-tutorial.com;
#X text 462 479 Johannes Kreidler;
#X obj 449 135 t f f;
#X obj 686 112 dbtorms;
#X obj 686 81 + 100;
#X obj 28 501 *~;
#X text 702 -1 makeup gain;
#X obj 28 -16 inlet~ signal;
#X text 36 9 signal to be compressed;
#X obj 259 45 inlet ratio;
#X text 254 12 x:1 ratio;
#X obj 339 45 inlet threshold;
#X obj 449 102 + 100;
#X text 302 24 threshold / reference \, -100 to 0 dB;
#X obj 27 152 loadbang;
#X msg 27 173 23.22;
#X obj 686 46 inlet makeupgain;
#X obj 228 274 pack;
#X obj 571 46 inlet release;
#X obj 263 420 pack;
#X obj 461 46 inlet attack;
#X text 495 -2 attack and release in ms;
#X obj 27 545 outlet~;
#X text 131 124 you can use a different signal here for sidechain compression
;
#X obj 27 102 delwrite~ compl2 100;
#X obj 27 214 delread~ compl2;
#X connect 0 0 3 0;
#X connect 1 0 7 0;
#X connect 2 0 32 0;
#X connect 3 0 2 0;
#X connect 4 0 18 0;
#X connect 5 0 4 1;
#X connect 6 0 38 0;
#X connect 7 0 8 0;
#X connect 7 1 0 0;
#X connect 8 0 30 0;
#X connect 15 0 7 1;
#X connect 15 1 0 2;
#X connect 16 0 18 1;
#X connect 17 0 16 0;
#X connect 18 0 35 0;
#X connect 20 0 1 0;
#X connect 20 0 37 0;
#X connect 22 0 0 1;
#X connect 24 0 25 0;
#X connect 25 0 15 0;
#X connect 27 0 28 0;
#X connect 28 0 6 0;
#X connect 29 0 17 0;
#X connect 30 0 5 0;
#X connect 31 0 30 1;
#X connect 32 0 5 0;
#X connect 33 0 32 1;
#X connect 38 0 4 0;
#X restore 461 531 pd compressor2;
#X obj 428 321 vsl 10 50 1 10 0 1 empty empty ratio -7 -9 0 8 -262144
-1 -1 2178 1;
#X obj 470 321 vsl 10 50 -50 0 0 1 empty empty threshold -20 -9 0 8
-262144 -1 -1 3920 1;
#X obj 509 321 vsl 10 50 0 100 0 1 empty empty attack -7 -9 0 8 -262144
-1 -1 2450 1;
#X obj 546 321 vsl 10 50 0 2000 0 1 empty empty release -7 -9 0 8 -262144
-1 -1 2450 1;
#X obj 588 321 vsl 10 50 0 20 0 1 empty empty gain -3 -9 0 8 -262144
-1 -1 0 1;
#X floatatom 428 405 5 0 0 0 - - -;
#X floatatom 470 405 5 0 0 0 - - -;
#X floatatom 509 405 5 0 0 0 - - -;
#X floatatom 546 405 5 0 0 0 - - -;
#X floatatom 588 405 5 0 0 0 - - -;
#X obj 472 182 loadbang;
#X floatatom 433 278 5 0 0 0 - - -;
#X floatatom 514 279 5 0 0 0 - - -;
#X floatatom 555 279 5 0 0 0 - - -;
#X floatatom 595 279 5 0 0 0 - - -;
#X floatatom 476 279 5 0 0 0 - - -;
#X msg 470 233 -10;
#X msg 509 233 50;
#X msg 546 233 1000;
#X msg 588 233 0;
#X msg 428 233 5;
#X obj 263 313 loadbang;
#X obj 263 348 delay 2000;
#X msg 263 383 \; pd dsp 1;
#X obj 688 487 dac~ 1 2;
#X msg 767 374 0.5;
#X obj 767 274 loadbang;
#X obj 461 573 delwrite~ delay1 10000;
#X msg 709 298 9500;
#X obj 760 430 hsl 128 15 0.01 1 0 0 empty empty empty -2 -8 0 10 -262144
-1 -1 0 1;
#X obj 461 496 adc~ 1;
#X connect 0 0 1 0;
#X connect 1 0 2 0;
#X connect 2 0 28 0;
#X connect 2 0 28 1;
#X connect 3 0 31 0;
#X connect 4 0 9 0;
#X connect 4 0 3 1;
#X connect 5 0 10 0;
#X connect 5 0 3 2;
#X connect 6 0 11 0;
#X connect 6 0 3 3;
#X connect 7 0 12 0;
#X connect 7 0 3 4;
#X connect 8 0 13 0;
#X connect 8 0 3 5;
#X connect 14 0 24 0;
#X connect 14 0 20 0;
#X connect 14 0 21 0;
#X connect 14 0 22 0;
#X connect 14 0 23 0;
#X connect 15 0 4 0;
#X connect 16 0 6 0;
#X connect 17 0 7 0;
#X connect 18 0 8 0;
#X connect 19 0 5 0;
#X connect 20 0 5 0;
#X connect 21 0 6 0;
#X connect 22 0 7 0;
#X connect 23 0 8 0;
#X connect 24 0 4 0;
#X connect 25 0 26 0;
#X connect 26 0 27 0;
#X connect 29 0 2 1;
#X connect 30 0 29 0;
#X connect 30 0 32 0;
#X connect 32 0 0 0;
#X connect 33 0 2 1;
#X connect 34 0 3 0;
